<?xml version="1.0" encoding="UTF-8"?>
<svg id="Laag_1" data-name="Laag 1" xmlns="http://www.w3.org/2000/svg" version="1.1" viewBox="0 0 550 400">
  <defs>
    <style>
      .cls-1 {
        fill: #fff;
        stroke-width: 0px;
      }
    </style>
  </defs>
  <path class="cls-1" d="M323.6,254.3l17.9-28.4c-2.1.9-4.4,1.3-6.8,1.2l-40.5-.3.3-11.5-14.8,27.4,15,26,.2-10.2,20.3.3c2.3,0,4.3-.7,6.3-2.2.9-.7,1.7-1.5,2.1-2.2Z"/>
  <path class="cls-1" d="M347.7,216.4c2.5-3.6,3.3-7.4,2.4-11.6-.2-1.3-.6-2.5-1.2-3.8l-15.6-27.3-29.6,17.1,18.9,32.9h12.1c3.7.2,6.8-1,9.7-3.5.5-.5,1-.9,1.5-1.3,0-.1.2-.2.3-.3.6-.7,1.1-1.4,1.5-2.1v-.2Z"/>
  <path class="cls-1" d="M201.9,211.2l15.8,29.8c.3-2.3,1.1-4.4,2.3-6.5l6.6-11.3,13.7-23.7,9.9,6-16.4-26.5h-30l8.8,5.3-10.4,17.5c-1.2,2-1.6,4.1-1.2,6.5.2,1.2.5,2.2.8,3Z"/>
  <path class="cls-1" d="M260.2,128l-5.1-.9c-4.3-.3-7.9,1-11.1,3.9-1,.9-1.9,1.9-2.6,3l-15.3,27.5,30,16.5,18.5-33.3-6.5-10.2c-1.8-3.2-4.4-5.3-7.9-6.5Z"/>
  <path class="cls-1" d="M222.8,250.9h0c1.9,4,4.7,6.6,8.8,8,2,.7,3.9,1.1,5.5,1h29.9s0-34.2,0-34.2h-37.9l-6.1,10.5c-1.9,3.1-2.4,6.4-1.7,10.1.2.8.3,1.5.6,2.2.3.9.7,1.7,1.1,2.4Z"/>
  <path class="cls-1" d="M327.4,145.4l-8.9,5.2-10.3-17.5c-1.1-1.9-2.7-3.3-5-4.2l-3.3-.7-33.5-.4c1.7,1.4,3.2,3.1,4.4,5.1l5.5,8.6h0c0,0,15.4,26,15.4,26l-10,5.7,31.1-1.5,14.5-26.3Z"/>
</svg>